<svg width="29" height="27" xmlns="http://www.w3.org/2000/svg"><defs><linearGradient x1="29.1%" y1="115.892%" x2="82.391%" y2="-21.479%" id="a"><stop stop-color="#166762" offset="0%"/><stop stop-color="#08958C" offset="100%"/></linearGradient></defs><path d="M157 833.114a5.905 5.905 0 0 0-.948.886l-1.85-1.539a3.006 3.006 0 0 1-1.453.373c-1.518 0-2.749-1.082-2.749-2.417 0-1.336 1.231-2.417 2.75-2.417 1.518 0 2.747 1.081 2.747 2.417 0 .42-.134.811-.35 1.156l1.853 1.54zm7.16-.114a6.06 6.06 0 0 0-1.16-.67l2.4-3.906a2.546 2.546 0 0 1-.777-1.827c0-1.435 1.202-2.597 2.687-2.597 1.488 0 2.69 1.162 2.69 2.597 0 1.436-1.202 2.599-2.69 2.599-.258 0-.504-.047-.741-.113L164.16 833zm8.364 3c1.368 0 2.476 1.12 2.476 2.5 0 1.382-1.108 2.5-2.476 2.5-1.236 0-2.255-.915-2.441-2.11l-3.083-.307c.08-.382.124-.779.124-1.185 0-.023-.003-.045-.003-.069l3.084.308a2.477 2.477 0 0 1 2.319-1.637zm-8.432 10.028c1.614.04 2.91 1.133 2.908 2.483 0 1.375-1.341 2.489-2.998 2.489-1.66 0-3.002-1.113-3.002-2.489 0-.96.661-1.783 1.62-2.2l-.836-3.028a8.032 8.032 0 0 0 1.473-.283l.835 3.028zM154.59 839c.091.404.232.79.41 1.155l-3.943 1.26c.004.055.017.107.017.163 0 1.339-1.137 2.422-2.538 2.422-1.402 0-2.536-1.083-2.536-2.422 0-1.338 1.134-2.421 2.536-2.421.889 0 1.67.439 2.123 1.1l3.93-1.257zm5.91 3a4.5 4.5 0 1 1 0-9 4.5 4.5 0 0 1 0 9z" transform="translate(-146 -824)" fill="url(#a)"/></svg>