<svg width="29" height="29" xmlns="http://www.w3.org/2000/svg"><defs><linearGradient x1="29.1%" y1="122.895%" x2="82.391%" y2="-29.076%" id="a"><stop stop-color="#166762" offset="0%"/><stop stop-color="#08958C" offset="100%"/></linearGradient></defs><path d="M175 1436.651l-4.35.608.622-4.259-3.309 3.24a14.204 14.204 0 0 0-7.902-2.38c-7.766 0-14.061 6.165-14.061 13.77 0 7.604 6.295 13.769 14.06 13.769 7.766 0 14.061-6.165 14.061-13.77 0-2.869-.896-5.533-2.43-7.738l3.309-3.24zm-6.861 18.89c-2.158 2.112-5.027 3.276-8.078 3.276-3.052 0-5.92-1.164-8.079-3.277-2.157-2.113-3.346-4.922-3.346-7.91 0-2.989 1.189-5.798 3.346-7.911 2.158-2.113 5.027-3.277 8.079-3.277 2.607 0 5.081.85 7.092 2.416l-3.141 3.077a7.101 7.101 0 0 0-3.951-1.19c-3.883 0-7.03 3.082-7.03 6.885 0 3.802 3.147 6.884 7.03 6.884 3.882 0 7.03-3.082 7.03-6.884a6.753 6.753 0 0 0-1.215-3.87l3.142-3.076a10.958 10.958 0 0 1 2.467 6.946c0 2.988-1.188 5.797-3.346 7.91zm-8.659-7.343c.257.252.595.378.932.378.338 0 .675-.126.932-.378l2.611-2.557c.318.595.5 1.271.5 1.989 0 2.372-1.972 4.302-4.394 4.302-2.423 0-4.394-1.93-4.394-4.302 0-2.373 1.97-4.303 4.394-4.303a4.44 4.44 0 0 1 2.03.489l-2.611 2.557a1.272 1.272 0 0 0 0 1.825z" transform="translate(-146 -1433)" fill="url(#a)"/></svg>