<svg id="Ebene_1" xmlns="http://www.w3.org/2000/svg" viewBox="0 0 39.7 39.3"><style>.st0{fill-rule:evenodd;clip-rule:evenodd;fill:#474747}</style><g id="Page-1"><g id="Group-28"><path id="Shape-Copy-21" class="st0" d="M39.6 20.4c.1-.4.1-.9 0-1.3-.9-.6-2.1-.8-3.1-.8 0-.5-.1-1-.2-1.5 1-.3 2-.8 2.8-1.6-.1-.4-.2-.9-.3-1.2-1-.3-2.2-.2-3.2 0-.2-.5-.4-.9-.6-1.3.9-.5 1.7-1.3 2.2-2.2-.1-.2-.2-.5-.3-.7-.1-.2-.2-.3-.3-.4-1.1 0-2.2.3-3.1.8L32.6 9c.7-.7 1.3-1.7 1.6-2.7-.2-.3-.6-.7-.9-.9-1 .3-2 .9-2.7 1.6l-1.2-.9c.5-.9.9-2 .8-3.1-.3-.2-.7-.5-1.1-.6-.9.5-1.7 1.4-2.2 2.2-.5-.2-.9-.4-1.4-.6.3-1 .3-2.1 0-3.2-.3-.1-.9-.3-1.2-.3-.8.8-1.3 1.8-1.6 2.8-.5-.1-1-.2-1.5-.2 0-1-.2-2.1-.8-3.1h-1.2c-.6.9-.8 2.1-.8 3.1-.5 0-1 .1-1.5.2-.3-1-.8-2-1.6-2.8-.4.1-.9.2-1.2.3-.3 1-.2 2.2 0 3.2-.5.2-1 .4-1.4.6-.5-.9-1.3-1.7-2.2-2.2l-.6.3c-.2.1-.4.2-.5.3 0 1.1.3 2.2.8 3.1-.4.3-.7.6-1.1.9-.7-.7-1.7-1.3-2.7-1.6-.3.2-.7.6-.9.9.3 1 .9 2 1.6 2.7l-.9 1.2c-.9-.5-2-.9-3.1-.8-.1.1-.2.3-.3.5l-.3.6c.5.9 1.4 1.7 2.2 2.2-.2.4-.4.9-.6 1.3-1-.3-2.1-.3-3.2 0-.1.3-.3.9-.3 1.2.7.8 1.8 1.3 2.8 1.6-.1.5-.1 1-.2 1.5-1 0-2.1.3-3.1.8-.1.4-.1.9 0 1.3.9.6 2.1.8 3.1.8.1.5.1 1 .2 1.5-1 .3-2 .8-2.8 1.6.1.4.2.9.3 1.2 1 .3 2.2.2 3.2 0 .2.5.4.9.6 1.3-.9.5-1.7 1.3-2.2 2.2.1.1.1.2.2.4.1.3.3.5.4.7 1.1 0 2.2-.3 3.1-.8l.9 1.2c-.7.7-1.3 1.7-1.6 2.7.2.3.6.7.9.9 1-.3 2-.9 2.7-1.6l1.2.9c-.5.9-.8 2-.8 3.1.3.2.8.5 1.1.6.9-.5 1.7-1.4 2.2-2.3.4.2.9.4 1.3.5-.3 1-.3 2.1 0 3.2.3.1.9.3 1.2.3.8-.7 1.3-1.8 1.6-2.8.5.1 1 .2 1.5.2 0 1 .3 2.1.8 3.1H20.5c.6-.9.8-2.1.8-3.1.5 0 1-.1 1.4-.2.3 1 .8 2 1.6 2.8.4-.1.9-.2 1.2-.3.3-1 .2-2.2 0-3.2.5-.2.9-.4 1.4-.6.5.9 1.3 1.7 2.2 2.2.3-.1.8-.4 1.1-.6 0-1.1-.3-2.2-.8-3.1.4-.3.8-.6 1.1-.9.7.7 1.7 1.3 2.8 1.6.3-.2.7-.6.9-.9-.3-1-.9-2-1.6-2.7l.9-1.2c.9.5 2 .9 3.1.8.1-.1.2-.3.3-.4.1-.2.3-.5.3-.6-.5-.9-1.4-1.7-2.2-2.2.2-.4.4-.9.6-1.3 1 .3 2.1.3 3.2 0 .1-.3.3-.9.3-1.2-.7-.8-1.8-1.3-2.7-1.6.1-.5.2-1 .2-1.4.9 0 2.1-.3 3-.8zm-29.5-13c2.7-2.1 6.1-3.5 9.8-3.5s7.1 1.3 9.8 3.4c.3.3.3.6.2.8l-1.6 1.8c-.2.3-.5.2-.8-.1-2.1-1.6-4.7-2.6-7.6-2.6-2.8 0-5.5 1-7.5 2.6-.3.3-.6.3-.8.1L10 8.1c-.3-.1-.3-.4.1-.7zm5 11.9c.4.2.4.6 0 .9L10 23.6c-.5.3-.6.1-.7-.2-.8-2.6-.8-4.8 0-7.4.2-.5.4-.4.7-.2l5.1 3.5zm-3.7-6.9c.9-1 1.9-1.7 2.9-2.3s2.2-1 3.5-1.4c.3-.1.6-.1.5.5l-.4 6.1c0 .2-.1.4-.2.5-.1.1-.3.1-.5 0l-5.5-2.7c-.4-.1-.7-.3-.3-.7zm.3 14l5.5-2.7c.4-.2.7 0 .8.5l.5 6.1c0 .6-.2.6-.5.5-2.6-.6-4.6-1.7-6.4-3.7-.5-.4-.2-.5.1-.7zm4.2-6.7c0-2.2 1.8-3.9 3.9-3.9s3.9 1.8 3.9 3.9-1.8 3.9-3.9 3.9c-2.1.1-3.9-1.7-3.9-3.9zm5.6 10.5l.4-6.1c0-.4.4-.6.8-.5l5.5 2.7c.6.3.4.5.2.7-1.9 2-3.8 3.1-6.4 3.7-.5.2-.5-.1-.5-.5zm3.2-10c-.4-.2-.4-.6 0-.9l5.1-3.4c.5-.3.6-.1.7.2.8 2.6.8 4.8 0 7.4-.2.5-.4.4-.7.2l-5.1-3.5zm3.5-7.1l-5.5 2.7c-.4.2-.7 0-.8-.5l-.4-6.1c-.1-.6.2-.6.5-.5 2.6.6 4.6 1.8 6.4 3.7.4.4.1.5-.2.7zM4.5 23.3c-1.2-5.4.4-10.7 3.7-14.1.3-.3.6-.3.7-.1l1.7 1.7c.2.3.2.6 0 .8C8 14.4 7 18 7.8 22.4c0 .3-.2.5-.4.6l-2.4.7c-.2 0-.4-.2-.5-.4zm30.1 2.2c-2.3 5.9-8 10-14.7 10s-12.4-4.1-14.7-10c-.1-.3 0-.5.3-.6l2.4-.8c.1 0 .5-.1.6.3 1.8 4.6 6.3 7.7 11.5 7.7s9.5-3.1 11.4-7.7c.2-.4.5-.4.6-.4l2.4.8c.1.2.3.4.2.7zm.7-2.2c-.1.3-.3.5-.6.4l-2.4-.7c-.2-.1-.4-.3-.4-.6.8-4.4-.2-7.9-2.8-10.8-.3-.2-.3-.6 0-.8l1.7-1.7c.1-.2.5-.2.7.1 3.3 3.4 5 8.7 3.8 14.1z"/><path id="Shape-Copy-20" class="st0" d="M23.4 19.7c0-2-1.6-3.6-3.6-3.6s-3.6 1.6-3.6 3.6 1.6 3.6 3.6 3.6 3.6-1.6 3.6-3.6zm-5.5 1c-.1-.3-.2-.6-.2-1s.1-.8.3-1.1c.2-.3.5-.6.8-.8.2-.1.3-.2.5-.2V17h1v.6c.6.1 1.1.5 1.4 1 .2.4.4.8.4 1.2 0 .4-.1.8-.3 1.1-.4.7-1.1 1.1-1.9 1.1-.9 0-1.7-.5-2-1.3z"/><path id="Shape-Copy-19" class="st0" d="M26 31c-.4.2-.6.6-.6 1.1 0 .2 0 .3.1.5 0 0 0 .1.1.1.3.6 1.1.8 1.7.5.2-.1.4-.3.5-.6.1-.2.1-.3.1-.5s-.1-.4-.2-.6c-.3-.6-1.1-.8-1.7-.5zm1.2 1.6l-.2.2c-.3.2-.8.1-1-.2l-.1-.1c-.1-.1-.1-.3-.1-.4 0-.3.1-.5.4-.7.4-.2.9-.1 1.1.3.1.1.1.3.1.4 0 .2 0 .4-.2.5z"/><path id="Shape-Copy-18" class="st0" d="M8.7 26l-2.2 1.3c.1.2.2.3.3.5L9 26.5c-.2-.2-.3-.4-.3-.5z"/><path id="Shape-Copy-17" class="st0" d="M23.9 31.9l.8 2.4c.2-.1.3-.1.5-.2l-.8-2.4c-.1.1-.3.2-.5.2z"/><path id="Shape-Copy-16" class="st0" d="M12 30.4l.3-.3c-.6-.5-1-.9-1.6-1.3l-.4.2.6.6-1.4 1.5.4.3 1.3-1.6c.3.2.5.4.8.6z"/><path id="Shape-Copy-15" class="st0" d="M23.4 32.1c-.7.2-1.3.3-2 .4l.1.4c.3-.1.5-.1.8-.1l.4 2 .5-.1-.4-2c.3-.1.5-.1.8-.2l-.2-.4z"/><path id="Shape-Copy-14" class="st0" d="M20.5 32.6h-.6v.1l-.3 1-.5 1.4h.5l.1-.4h1.1l.2.4c.2 0 .3 0 .5-.1l-.5-1.3-.5-1.1zm-.6 1.6l.2-.5.2-.5.2.5.2.5h-.8z"/><path id="Shape-Copy-13" class="st0" d="M29.7 28l.4.6 1 1.6c.1-.1.2-.2.3-.4l-.2-.4.7-.9.4.2c0-.1.1-.1.1-.2.1-.1.1-.2.2-.2l-2.5-.8-.4.5zm1.6.5l-.1.1-.4.5-.3-.5-.3-.5 1.1.4z"/><path id="Shape-Copy-12" class="st0" d="M32.8 27.2L31 26.2 30.7 26.6 32.9 27.9 33.8 26.3 33.4 26.1z"/><path id="Shape-Copy-11" class="st0" d="M18.3 32.5l-.2 1.5-.7-1.7c-.2 0-.3-.1-.4-.1l-.6 2.5c.2 0 .3.1.5.1l.3-1.5.7 1.7c.2 0 .3.1.5.1l.3-2.5c0-.1-.2-.1-.4-.1z"/><path id="Shape-Copy-10" class="st0" d="M28.6 29.1l1 1.1-1.7-.5c-.1.1-.2.2-.4.3l1.5 2c.1-.1.3-.2.4-.3l-.9-1.2 1.8.5c.1-.1.3-.2.4-.4L29 28.7c-.2.2-.2.3-.4.4z"/><path id="Shape-Copy-9" class="st0" d="M10 28l-1.2 1 .6-1.7c-.1-.2-.1-.2-.3-.4L7 28.3c.1.1.2.3.3.4l1.3-.9-.6 1.7c.1.1.2.3.3.4l1.9-1.7c.1 0-.1-.1-.2-.2z"/><path id="Shape-Copy-8" class="st0" d="M15.8 31.9l-1.1-.4-.4 1-.1.1-.5 1.2c.2.1.3.1.5.2l.4-1 .5.2v1.1c.2.1.4.1.5.2l-.1-1.2c.4-.1.6-.4.6-.7v-.1c.1-.3 0-.5-.3-.6zm-.1.7c-.1.2-.2.3-.4.2l-.6-.2.1-.1.1-.4.6.2c.1 0 .1.1.2.3 0-.1 0 0 0 0z"/><path id="Shape-Copy-7" class="st0" d="M12.9 31c.3.2.7.4 1 .6l.2-.4c-.5-.3-1-.6-1.4-.9l-1.4 2.1c.5.3 1 .6 1.6 1l.2-.4-1.1-.7.4-.5.7.5.2-.3c-.2-.1-.5-.3-.8-.5l.4-.5z"/><path id="Shape-Copy-6" class="st0" d="M16 7.5c.6-.1 1.1-.6 1.1-1.3v-.1c-.1-.7-.7-1.2-1.4-1.1-.6.1-1.1.6-1.1 1.2v.1c.2.7.8 1.2 1.4 1.2zm-.1-2.1c.4 0 .8.3.9.7v.1c0 .4-.3.7-.7.8-.4 0-.8-.3-.9-.7v-.1c-.1-.4.3-.8.7-.8z"/><path id="Shape-Copy-5" class="st0" d="M20.6 6.5c.3 0 .7 0 1 .1l.1.5c.2 0 .3 0 .5.1l-.4-1.5-.3-1.1-.6-.1-.6 1.2-.6 1.3h.5l.4-.5zm.6-1.5l.2.5.1.5c-.3 0-.5-.1-.8-.1l.2-.5.3-.4z"/><path id="Shape-Copy-4" class="st0" d="M18.3 4.9l.2 2 .5-.1-.2-2 .8-.1v-.4c-.9.1-1.3.1-2.2.2l.1.4h.8z"/><path id="Shape-Copy-3" class="st0" d="M26.1 8.5l.5-1 1.5-.7c-.2-.1-.3-.2-.5-.3l-1 .5-.2-1.1c-.2-.1-.3-.2-.5-.2l.3 1.6-.5 1 .4.2z"/><path id="Shape-Copy-2" class="st0" d="M23.6 6.5l.5.2.1 1c.2.1.3.1.5.2l-.2-1.1c.4-.1.6-.5.5-.9 0-.3-.1-.5-.4-.6-.4-.1-.8-.3-1.2-.4l-.3 1-.4 1.4c.2.1.4.1.6.1l.3-.9zm.3-1.1c.2.1.4.1.6.2.1 0 .2.1.2.2 0 .2-.2.4-.4.4l-.6-.2.1-.2.1-.4z"/><path id="Shape-Copy" class="st0" d="M13 8.9c.2-.1.3-.2.5-.3l-.5-.8.4-.2.8.6c.2-.1.3-.2.5-.2l-.9-.7c.1-.1.1-.2.1-.3.1-.5-.6-1.1-1-.9s-.8.4-1.1.6l.1.3L13 8.9zm0-2.3c.2-.1.4.2.4.4 0 .1 0 .1-.1.2l-.5.3-.3-.5-.1-.1c.3-.2.4-.2.6-.3z"/></g></g></svg>