<svg enable-background="new 0 0 385.6 155.4" viewBox="0 0 385.6 155.4" xmlns="http://www.w3.org/2000/svg"><g fill="#5c5c5c"><path d="m67.8 88.6-35.1-20.3v65.7l35.1 10.6z"/><path d="m71.7 88.8v55.8l35.4-10.6v-65.7z"/><path d="m127.4 132.8h-1.1l4.2 14.5 4.2-14.5h-1.1 1.1v-58.4h-1.1-1-1.1-2.1-1-1-1.1v58.4z"/><path d="m114.6 71.1-3.7-2.9v67.5l-39.1 12.7h-1.8-.4-1.8l-38.8-10.9v-69.3l-3.8 2.9v69l42.5 11.8h1.9.4 2l39.2-12.4 3.4-1.1z"/><path d="m134.7 66.7c0-2.3-1.9-4.2-4.2-4.2s-4.2 1.9-4.2 4.2v4.5h8.3v-4.5z"/><path d="m41.9 18.1v-1.1c-2.2-.4-3.2-2-3.2-4.3v-8c0-2.6 1.3-4.5 4.2-4.5s4.2 1.9 4.2 4.5v8c0 1.8-.6 3.2-2 3.9l2 .4v2.1zm2.4-4.8v-9c0-1-.4-1.7-1.4-1.7s-1.4.7-1.4 1.7v9c0 1 .4 1.7 1.4 1.7s1.4-.8 1.4-1.7"/><path d="m56.7.4v12.5c0 2.6-1.1 4.2-3.9 4.2-2.9 0-4.1-1.7-4.1-4.2v-12.5h2.8v12.8c0 1 .4 1.6 1.4 1.6s1.4-.7 1.4-1.6v-12.8z"/><path d="m57.5 16.9 3.1-16.5h3.2l3.1 16.5h-2.8l-.5-3h-2.9l-.5 3zm3.5-5.2h2.2l-1.1-6.6z"/><path d="m68.1.4h2.8v14.3h3.3v2.3h-6.1z"/><path d="m75.4.4h2.8v16.5h-2.8z"/><path d="m79.5.4h7.4v2.3h-2.3v14.3h-2.8v-14.3h-2.3z"/><path d="m93.6 10.7v6.3h-2.8v-6.3l-3.1-10.3h2.9l1.7 6.3 1.7-6.3h2.6z"/><path d="m38.7 23.6h6.6v2.2h-3.8v4.8h2.7v2.2h-2.7v5h3.8v2.3h-6.6z"/><path d="m55.1 28v7.6c0 2.5-1 4.4-4 4.4h-4.3v-16.5h4.3c3 .1 4 1.9 4 4.5m-4.4 9.8c1.1 0 1.6-.7 1.6-1.7v-8.6c0-1-.4-1.7-1.6-1.7h-1.2v12z"/><path d="m64.7 23.6v12.5c0 2.6-1.1 4.2-3.9 4.2-2.9 0-4.1-1.7-4.1-4.2v-12.5h2.8v12.8c0 1 .4 1.6 1.4 1.6s1.4-.7 1.4-1.6v-12.8z"/><path d="m66.3 35.8v-8c0-2.6 1.2-4.5 4.1-4.5 3.1 0 3.9 1.7 3.9 4.1v1.9h-2.5v-2.2c0-1-.3-1.6-1.3-1.6s-1.4.7-1.4 1.7v8.9c0 1 .4 1.7 1.4 1.7s1.3-.6 1.3-1.6v-3h2.5v2.9c0 2.4-1 4.1-3.9 4.1-2.9.1-4.1-1.8-4.1-4.4"/><path d="m75.2 40.1 3.1-16.5h3.2l3.1 16.5h-2.8l-.5-3h-2.9l-.5 3zm3.5-5.3h2.2l-1.1-6.6z"/><path d="m84.2 23.6h7.4v2.2h-2.3v14.3h-2.8v-14.3h-2.3z"/><path d="m92.9 23.6h2.8v16.5h-2.8z"/><path d="m97.3 35.8v-8c0-2.6 1.3-4.5 4.2-4.5s4.2 1.9 4.2 4.5v8c0 2.6-1.3 4.5-4.2 4.5s-4.2-1.9-4.2-4.5m5.6.5v-8.9c0-1-.4-1.7-1.4-1.7s-1.4.7-1.4 1.7v8.9c0 1 .4 1.7 1.4 1.7s1.4-.7 1.4-1.7"/><path d="m109.6 29.7v10.4h-2.3v-16.5h2.7l3 9.4v-9.4h2.3v16.5h-2.4z"/><path d="m11.7 39.5h6.3v-6.4h2.7v-5.2h-2.7v-27.9h-6.5l-11.5 29v4.1h11.7zm-5.9-11.6 5.9-16.3h.1v16.3z"/><path d="m281.6.2h4.1c2.8 0 3.8 1.4 3.8 3.7v3.5c0 2.3-1 3.7-3.8 3.7h-1.3v5.6h-2.8zm2.8 2.2v6.5h1c.9 0 1.4-.5 1.4-1.4v-3.8c0-.9-.4-1.3-1.4-1.3z"/><path d="m289.6 16.7 3.1-16.5h3.2l3.1 16.5h-2.8l-.5-3h-2.9l-.5 3zm3.5-5.2h2.2l-1.1-6.6z"/><path d="m302.9 9.1v7.6h-2.8v-16.5h4c2.8 0 3.8 1.4 3.8 3.7v2.1c0 1.8-.6 2.8-2.2 3.2l2.7 7.5h-2.9zm0-6.7v5.1h.9c.9 0 1.4-.5 1.4-1.4v-2.4c0-.9-.4-1.3-1.4-1.3z"/><path d="m309 .2h7.4v2.2h-2.3v14.3h-2.8v-14.3h-2.3z"/><path d="m320 6.3v10.4h-2.4v-16.5h2.8l3 9.5v-9.5h2.3v16.5h-2.5z"/><path d="m327.3.2h6.6v2.2h-3.9v4.8h2.8v2.2h-2.8v5h3.9v2.3h-6.6z"/><path d="m338.1 9.1v7.6h-2.8v-16.5h4c2.8 0 3.8 1.4 3.8 3.7v2.1c0 1.8-.6 2.8-2.2 3.2l2.7 7.5h-2.9zm0-6.7v5.1h.9c.9 0 1.4-.5 1.4-1.4v-2.4c0-.9-.4-1.3-1.4-1.3z"/><path d="m344.5 13.1v-2.2h2.6v2.3c0 .9.4 1.5 1.4 1.5.9 0 1.3-.6 1.3-1.5v-.6c0-.9-.4-1.5-1.2-2.3l-1.6-1.6c-1.6-1.6-2.3-2.5-2.3-4.4v-.6c0-2 1.2-3.6 3.9-3.6 2.8 0 3.9 1.4 3.9 3.8v1.3h-2.5v-1.4c0-.9-.4-1.4-1.3-1.4-.8 0-1.3.4-1.3 1.4v.3c0 .9.5 1.5 1.3 2.2l1.8 1.8c1.5 1.5 2.2 2.5 2.2 4.3v.8c0 2.3-1.2 3.9-4 3.9-3.1-.2-4.2-1.8-4.2-4"/><path d="m359.4 9.4h-2.7v7.3h-2.8v-16.5h2.8v7h2.7v-7h2.8v16.5h-2.8z"/><path d="m363.7.2h2.8v16.5h-2.8z"/><path d="m368.1.2h4.1c2.8 0 3.8 1.4 3.8 3.7v3.5c0 2.3-1 3.7-3.8 3.7h-1.3v5.6h-2.8zm2.8 2.2v6.5h1c.9 0 1.4-.5 1.4-1.4v-3.8c0-.9-.4-1.3-1.4-1.3z"/><path d="m377.4 13.1v-2.2h2.6v2.3c0 .9.4 1.5 1.4 1.5.9 0 1.3-.6 1.3-1.5v-.6c0-.9-.4-1.5-1.2-2.3l-1.6-1.6c-1.6-1.6-2.3-2.5-2.3-4.4v-.6c0-2 1.2-3.6 3.9-3.6 2.8 0 3.9 1.4 3.9 3.8v1.3h-2.5v-1.4c0-.9-.4-1.4-1.3-1.4-.8 0-1.3.4-1.3 1.4v.3c0 .9.5 1.5 1.3 2.2l1.8 1.8c1.5 1.5 2.2 2.5 2.2 4.3v.8c0 2.3-1.2 3.9-4 3.9-3.2-.2-4.2-1.8-4.2-4"/><path d="m281.6 23.3h6.5v2.3h-3.7v4.7h2.8v2.2h-2.8v7.3h-2.8z"/><path d="m289.1 35.6v-8c0-2.6 1.3-4.5 4.2-4.5s4.2 1.9 4.2 4.5v8c0 2.6-1.3 4.5-4.2 4.5-2.9-.1-4.2-2-4.2-4.5m5.6.4v-8.9c0-1-.4-1.7-1.4-1.7s-1.4.7-1.4 1.7v8.9c0 1 .4 1.7 1.4 1.7s1.4-.7 1.4-1.7"/><path d="m301.9 32.2v7.6h-2.8v-16.5h4c2.8 0 3.8 1.4 3.8 3.7v2.1c0 1.8-.6 2.8-2.2 3.2l2.7 7.5h-2.9zm0-6.6v5.1h.9c.9 0 1.4-.5 1.4-1.4v-2.4c0-.9-.4-1.3-1.4-1.3z"/><path d="m310.7 23.3h7.4v2.3h-2.3v14.2h-2.8v-14.2h-2.3z"/><path d="m324.8 32.5h-2.7v7.3h-2.7v-16.5h2.7v7h2.7v-7h2.8v16.5h-2.8z"/><path d="m329.2 23.3h6.6v2.3h-3.8v4.7h2.7v2.2h-2.7v5.1h3.8v2.2h-6.6z"/><path d="m344.1 31h3.9v8.8h-2v-1.8c-.4 1.2-1.1 2-2.7 2-2.4 0-3.5-1.9-3.5-4.5v-8c0-2.6 1.2-4.5 4.2-4.5 3.1 0 4 1.7 4 4.1v1.5h-2.5v-1.7c0-1-.4-1.6-1.4-1.6s-1.4.7-1.4 1.7v8.9c0 1 .4 1.7 1.4 1.7.9 0 1.4-.5 1.4-1.6v-2.9h-1.3v-2.1z"/><path d="m349.6 35.6v-8c0-2.6 1.3-4.5 4.2-4.5s4.2 1.9 4.2 4.5v8c0 2.6-1.3 4.5-4.2 4.5-2.9-.1-4.2-2-4.2-4.5m5.6.4v-8.9c0-1-.4-1.7-1.4-1.7s-1.4.7-1.4 1.7v8.9c0 1 .4 1.7 1.4 1.7s1.4-.7 1.4-1.7"/><path d="m358.8 39.8 3.1-16.5h3.2l3.1 16.5h-2.8l-.5-3h-2.9l-.5 3zm3.5-5.2h2.2l-1.1-6.6z"/><path d="m369.3 23.3h2.8v14.3h3.3v2.2h-6.1z"/><path d="m376.4 36.3v-2.2h2.6v2.3c0 .9.4 1.5 1.4 1.5.9 0 1.3-.6 1.3-1.5v-.7c0-.9-.4-1.5-1.2-2.3l-1.6-1.6c-1.6-1.6-2.3-2.5-2.3-4.4v-.7c0-2 1.2-3.6 3.9-3.6 2.8 0 3.9 1.4 3.9 3.8v1.3h-2.5v-1.4c0-.9-.4-1.4-1.3-1.4-.8 0-1.3.4-1.3 1.4v.3c0 .9.5 1.5 1.3 2.2l1.8 1.8c1.5 1.5 2.2 2.5 2.2 4.3v.8c0 2.3-1.2 3.9-4 3.9-3.1-.1-4.2-1.7-4.2-3.8"/><path d="m365.7 102.7c0-13.8-10.9-25-24.6-25.5-3.5-9.9-13-17-24.1-17s-20.5 7.1-24.1 17c-13.5.5-24.4 11.8-24.4 25.5 0 8.2 3.9 15.4 9.8 20.1-.7 2.3-1 4.6-1 7.1 0 14.1 11.4 25.5 25.5 25.5 5.3 0 10.3-1.7 14.4-4.5 4.1 2.7 8.9 4.3 14.2 4.3 14.1 0 25.5-11.4 25.5-25.5 0-2.4-.3-4.7-1-6.9 6-4.6 9.8-11.9 9.8-20.1m-28.2-17c0 10.2-7.6 18.7-17.4 20.1-.2-1-.3-2.1-.3-3.1 0-10.2 7.6-18.7 17.4-20.1.2 1 .3 2.1.3 3.1m-20.3 58.7c-3.8-3.7-6.2-8.9-6.2-14.6 0-5.6 2.3-10.7 6-14.4 3.8 3.7 6.2 8.9 6.2 14.6 0 5.6-2.3 10.7-6 14.4m-20.2-61.8c9.8 1.5 17.4 9.9 17.4 20.1 0 1.1-.1 2.1-.3 3.1-9.8-1.5-17.4-9.9-17.4-20.1 0-1 .1-2.1.3-3.1m15.2 29.3c-3.4 6.7-10.2 11.3-18.2 11.3-3.4 0-6.6-.8-9.4-2.3 3.4-6.7 10.2-11.3 18.2-11.3 3.4 0 6.6.8 9.4 2.3m9.7-.2c2.8-1.5 6-2.3 9.4-2.3 8 0 14.9 4.7 18.3 11.4-2.8 1.5-6 2.3-9.4 2.3-8 0-14.9-4.6-18.3-11.4m-4.8-46.3c8.3 0 15.5 5.1 18.7 12.3-8.3 1.5-15.2 6.9-18.7 14.3-3.5-7.4-10.4-12.9-18.7-14.3 3.2-7.3 10.3-12.3 18.7-12.3m-43.5 37.3c0-10.5 8-19.2 18.2-20.3-.1 1.1-.2 2.2-.2 3.3 0 7.5 3.2 14.2 8.3 18.8-8.5 1-15.7 6.1-19.6 13.3-4.1-3.7-6.7-9.1-6.7-15.1m8.8 27.2c0-1.5.2-2.9.4-4.2 3.4 1.6 7.1 2.5 11.1 2.5 4.5 0 8.7-1.2 12.3-3.2-.3 1.5-.4 3.1-.4 4.7 0 6.9 2.8 13.2 7.2 17.7-3 1.8-6.5 2.8-10.3 2.8-11.1.1-20.3-9-20.3-20.3m69.4-.1c0 11.2-9.1 20.4-20.4 20.4-3.7 0-7.1-1-10-2.7 4.3-4.6 7-10.7 7-17.5 0-1.7-.2-3.3-.5-4.9 3.7 2 7.9 3.2 12.4 3.2 4 0 7.8-.9 11.1-2.6.2 1.3.4 2.7.4 4.1m-17.4-25.4c5-4.7 8.2-11.3 8.2-18.7 0-1.1-.1-2.2-.2-3.3 10.2 1.1 18.2 9.8 18.2 20.3 0 6-2.6 11.3-6.7 15.1-3.8-7.2-11-12.3-19.5-13.4"/><path d="m247.3.3v39.5h-6.6v-30.2h-.1l-4.7 4.8v-6.9l6.1-7.2z"/><path d="m250.3.3h16.7v6.2l-8.7 33.3h-6.6l8.9-34h-10.3z"/></g></svg>