<svg id="Ebene_1" xmlns="http://www.w3.org/2000/svg" viewBox="0 0 294.8 40"><style>.st0{fill-rule:evenodd;clip-rule:evenodd;fill:#fff}</style><g id="Page-1"><g id="Group-28"><path id="Shape-Copy-21" class="st0" d="M166.3 20.4c.1-.4.1-.9 0-1.3-.9-.6-2.1-.8-3.1-.8 0-.5-.1-1-.2-1.5 1-.3 2-.8 2.8-1.6-.1-.4-.2-.9-.3-1.2-1-.3-2.2-.2-3.2 0-.2-.5-.4-.9-.6-1.3.9-.5 1.7-1.3 2.2-2.2-.1-.2-.2-.5-.3-.7-.1-.2-.2-.3-.3-.4-1.1 0-2.2.3-3.1.8l-.9-1.2c.7-.7 1.3-1.7 1.6-2.7-.2-.3-.6-.7-.9-.9-1 .3-2 .9-2.7 1.6l-1.2-.9c.5-.9.9-2 .8-3.1-.3-.2-.7-.5-1.1-.6-.9.5-1.7 1.4-2.2 2.2-.5-.2-.9-.4-1.4-.6.3-1 .3-2.1 0-3.2-.3-.1-.9-.3-1.2-.3-.8.8-1.3 1.8-1.6 2.8-.5-.1-1-.2-1.5-.2 0-1-.2-2.1-.8-3.1h-1.2c-.6.9-.8 2.1-.8 3.1-.5 0-1 .1-1.5.2-.3-1-.8-2-1.6-2.8-.4.1-.9.2-1.2.3-.3 1-.2 2.2 0 3.2-.5.2-1 .4-1.4.6-.5-.9-1.3-1.7-2.2-2.2l-.6.3c-.2.1-.4.2-.5.3 0 1.1.3 2.2.8 3.1-.4.3-.7.6-1.1.9-.7-.7-1.7-1.3-2.7-1.6-.3.2-.7.6-.9.9.3 1 .9 2 1.6 2.7l-.9 1.2c-.9-.5-2-.9-3.1-.8-.1.1-.2.3-.3.5l-.3.6c.5.9 1.4 1.7 2.2 2.2-.2.4-.4.9-.6 1.3-1-.3-2.1-.3-3.2 0-.1.3-.3.9-.3 1.2.7.8 1.8 1.3 2.8 1.6-.1.5-.1 1-.2 1.5-1 0-2.1.3-3.1.8-.1.4-.1.9 0 1.3.9.6 2.1.8 3.1.8.1.5.1 1 .2 1.5-1 .3-2 .8-2.8 1.6.1.4.2.9.3 1.2 1 .3 2.2.2 3.2 0 .2.5.4.9.6 1.3-.9.5-1.7 1.3-2.2 2.2.1.1.1.2.2.4.1.3.3.5.4.7 1.1 0 2.2-.3 3.1-.8l.9 1.2c-.7.7-1.3 1.7-1.6 2.7.2.3.6.7.9.9 1-.3 2-.9 2.7-1.6l1.2.9c-.5.9-.8 2-.8 3.1.3.2.8.5 1.1.6.9-.5 1.7-1.4 2.2-2.3.4.2.9.4 1.3.5-.3 1-.3 2.1 0 3.2.3.1.9.3 1.2.3.8-.7 1.3-1.8 1.6-2.8.5.1 1 .2 1.5.2 0 1 .3 2.1.8 3.1H147.2c.6-.9.8-2.1.8-3.1.5 0 1-.1 1.4-.2.3 1 .8 2 1.6 2.8.4-.1.9-.2 1.2-.3.3-1 .2-2.2 0-3.2.5-.2.9-.4 1.4-.6.5.9 1.3 1.7 2.2 2.2.3-.1.8-.4 1.1-.6 0-1.1-.3-2.2-.8-3.1.4-.3.8-.6 1.1-.9.7.7 1.7 1.3 2.8 1.6.3-.2.7-.6.9-.9-.3-1-.9-2-1.6-2.7l.9-1.2c.9.5 2 .9 3.1.8.1-.1.2-.3.3-.4.1-.2.3-.5.3-.6-.5-.9-1.4-1.7-2.2-2.2.2-.4.4-.9.6-1.3 1 .3 2.1.3 3.2 0 .1-.3.3-.9.3-1.2-.7-.8-1.8-1.3-2.7-1.6.1-.5.2-1 .2-1.4.9 0 2.1-.3 3-.8zm-29.5-13c2.7-2.1 6.1-3.5 9.8-3.5 3.7 0 7.1 1.3 9.8 3.4.3.3.3.6.2.8L155 9.9c-.2.3-.5.2-.8-.1-2.1-1.6-4.7-2.6-7.6-2.6-2.8 0-5.5 1-7.5 2.6-.3.3-.6.3-.8.1l-1.6-1.8c-.3-.1-.3-.4.1-.7zm5 11.9c.4.2.4.6 0 .9l-5.1 3.4c-.5.3-.6.1-.7-.2-.8-2.6-.8-4.8 0-7.4.2-.5.4-.4.7-.2l5.1 3.5zm-3.7-6.9c.9-1 1.9-1.7 2.9-2.3 1-.6 2.2-1 3.5-1.4.3-.1.6-.1.5.5l-.4 6.1c0 .2-.1.4-.2.5-.1.1-.3.1-.5 0l-5.5-2.7c-.4-.1-.7-.3-.3-.7zm.3 14l5.5-2.7c.4-.2.7 0 .8.5l.5 6.1c0 .6-.2.6-.5.5-2.6-.6-4.6-1.7-6.4-3.7-.5-.4-.2-.5.1-.7zm4.2-6.7c0-2.2 1.8-3.9 3.9-3.9s3.9 1.8 3.9 3.9-1.8 3.9-3.9 3.9c-2.1.1-3.9-1.7-3.9-3.9zm5.6 10.5l.4-6.1c0-.4.4-.6.8-.5l5.5 2.7c.6.3.4.5.2.7-1.9 2-3.8 3.1-6.4 3.7-.5.2-.5-.1-.5-.5zm3.2-10c-.4-.2-.4-.6 0-.9l5.1-3.4c.5-.3.6-.1.7.2.8 2.6.8 4.8 0 7.4-.2.5-.4.4-.7.2l-5.1-3.5zm3.5-7.1l-5.5 2.7c-.4.2-.7 0-.8-.5l-.4-6.1c-.1-.6.2-.6.5-.5 2.6.6 4.6 1.8 6.4 3.7.4.4.1.5-.2.7zm-23.7 10.2c-1.2-5.4.4-10.7 3.7-14.1.3-.3.6-.3.7-.1l1.7 1.7c.2.3.2.6 0 .8-2.6 2.8-3.6 6.4-2.8 10.8 0 .3-.2.5-.4.6l-2.4.7c-.2 0-.4-.2-.5-.4zm30.1 2.2c-2.3 5.9-8 10-14.7 10s-12.4-4.1-14.7-10c-.1-.3 0-.5.3-.6l2.4-.8c.1 0 .5-.1.6.3 1.8 4.6 6.3 7.7 11.5 7.7s9.5-3.1 11.4-7.7c.2-.4.5-.4.6-.4l2.4.8c.1.2.3.4.2.7zm.7-2.2c-.1.3-.3.5-.6.4L159 23c-.2-.1-.4-.3-.4-.6.8-4.4-.2-7.9-2.8-10.8-.3-.2-.3-.6 0-.8l1.7-1.7c.1-.2.5-.2.7.1 3.3 3.4 5 8.7 3.8 14.1z"/><path id="Shape-Copy-20" class="st0" d="M150.1 19.7c0-2-1.6-3.6-3.6-3.6s-3.6 1.6-3.6 3.6 1.6 3.6 3.6 3.6 3.6-1.6 3.6-3.6zm-5.5 1c-.1-.3-.2-.6-.2-1s.1-.8.3-1.1c.2-.3.5-.6.8-.8.2-.1.3-.2.5-.2V17h1v.6c.6.1 1.1.5 1.4 1 .2.4.4.8.4 1.2 0 .4-.1.8-.3 1.1-.4.7-1.1 1.1-1.9 1.1-.9 0-1.7-.5-2-1.3z"/><path id="Shape-Copy-19" class="st0" d="M152.7 31c-.4.2-.6.6-.6 1.1 0 .2 0 .3.1.5 0 0 0 .1.1.1.3.6 1.1.8 1.7.5.2-.1.4-.3.5-.6.1-.2.1-.3.1-.5s-.1-.4-.2-.6c-.3-.6-1.1-.8-1.7-.5zm1.2 1.6l-.2.2c-.3.2-.8.1-1-.2l-.1-.1c-.1-.1-.1-.3-.1-.4 0-.3.1-.5.4-.7.4-.2.9-.1 1.1.3.1.1.1.3.1.4 0 .2 0 .4-.2.5z"/><path id="Shape-Copy-18" class="st0" d="M135.4 26l-2.2 1.3c.1.2.2.3.3.5l2.2-1.3c-.2-.2-.3-.4-.3-.5z"/><path id="Shape-Copy-17" class="st0" d="M150.6 31.9l.8 2.4c.2-.1.3-.1.5-.2l-.8-2.4c-.1.1-.3.2-.5.2z"/><path id="Shape-Copy-16" class="st0" d="M138.7 30.4l.3-.3c-.6-.5-1-.9-1.6-1.3l-.4.2.6.6-1.4 1.5.4.3 1.3-1.6c.3.2.5.4.8.6z"/><path id="Shape-Copy-15" class="st0" d="M150.1 32.1c-.7.2-1.3.3-2 .4l.1.4c.3-.1.5-.1.8-.1l.4 2 .5-.1-.4-2c.3-.1.5-.1.8-.2l-.2-.4z"/><path id="Shape-Copy-14" class="st0" d="M147.2 32.6h-.6v.1l-.3 1-.5 1.4h.5l.1-.4h1.1l.2.4c.2 0 .3 0 .5-.1l-.5-1.3-.5-1.1zm-.6 1.6l.2-.5.2-.5.2.5.2.5h-.8z"/><path id="Shape-Copy-13" class="st0" d="M156.4 28l.4.6 1 1.6c.1-.1.2-.2.3-.4l-.2-.4.7-.9.4.2c0-.1.1-.1.1-.2.1-.1.1-.2.2-.2l-2.5-.8-.4.5zm1.6.5l-.1.1-.4.5-.3-.5-.3-.5 1.1.4z"/><path id="Shape-Copy-12" class="st0" d="M159.5 27.2L157.7 26.2 157.4 26.6 159.6 27.9 160.5 26.3 160.1 26.1z"/><path id="Shape-Copy-11" class="st0" d="M145 32.5l-.2 1.5-.7-1.7c-.2 0-.3-.1-.4-.1l-.6 2.5c.2 0 .3.1.5.1l.3-1.5.7 1.7c.2 0 .3.1.5.1l.3-2.5c0-.1-.2-.1-.4-.1z"/><path id="Shape-Copy-10" class="st0" d="M155.3 29.1l1 1.1-1.7-.5c-.1.1-.2.2-.4.3l1.5 2c.1-.1.3-.2.4-.3l-.9-1.2 1.8.5c.1-.1.3-.2.4-.4l-1.7-1.9c-.2.2-.2.3-.4.4z"/><path id="Shape-Copy-9" class="st0" d="M136.7 28l-1.2 1 .6-1.7c-.1-.2-.1-.2-.3-.4l-2.1 1.4c.1.1.2.3.3.4l1.3-.9-.6 1.7c.1.1.2.3.3.4l1.9-1.7c.1 0-.1-.1-.2-.2z"/><path id="Shape-Copy-8" class="st0" d="M142.5 31.9l-1.1-.4-.4 1-.1.1-.5 1.2c.2.1.3.1.5.2l.4-1 .5.2v1.1c.2.1.4.1.5.2l-.1-1.2c.4-.1.6-.4.6-.7v-.1c.1-.3 0-.5-.3-.6zm-.1.7c-.1.2-.2.3-.4.2l-.6-.2.1-.1.1-.4.6.2c.1 0 .1.1.1.2.1 0 .1.1.1.1z"/><path id="Shape-Copy-7" class="st0" d="M139.6 31c.3.2.7.4 1 .6l.2-.4c-.5-.3-1-.6-1.4-.9l-1.4 2.1c.5.3 1 .6 1.6 1l.2-.4-1.1-.7.4-.5.7.5.2-.3c-.2-.1-.5-.3-.8-.5l.4-.5z"/><path id="Shape-Copy-6" class="st0" d="M142.7 7.5c.6-.1 1.1-.6 1.1-1.3v-.1c-.1-.7-.7-1.2-1.4-1.1-.6.1-1.1.6-1.1 1.2v.1c.2.7.8 1.2 1.4 1.2zm-.1-2.1c.4 0 .8.3.9.7v.1c0 .4-.3.7-.7.8-.4 0-.8-.3-.9-.7v-.1c-.1-.4.3-.8.7-.8z"/><path id="Shape-Copy-5" class="st0" d="M147.3 6.5c.3 0 .7 0 1 .1l.1.5c.2 0 .3 0 .5.1l-.4-1.5-.3-1.1-.6-.1-.6 1.2-.6 1.3h.5l.4-.5zm.6-1.5l.2.5.1.5c-.3 0-.5-.1-.8-.1l.2-.5.3-.4z"/><path id="Shape-Copy-4" class="st0" d="M145 4.9l.2 2 .5-.1-.2-2 .8-.1v-.4c-.9.1-1.3.1-2.2.2l.1.4h.8z"/><path id="Shape-Copy-3" class="st0" d="M152.8 8.5l.5-1 1.5-.7c-.2-.1-.3-.2-.5-.3l-1 .5-.2-1.1c-.2-.1-.3-.2-.5-.2l.3 1.6-.5 1 .4.2z"/><path id="Shape-Copy-2" class="st0" d="M150.3 6.5l.5.2.1 1c.2.1.3.1.5.2l-.2-1.1c.4-.1.6-.5.5-.9 0-.3-.1-.5-.4-.6-.4-.1-.8-.3-1.2-.4l-.3 1-.4 1.4c.2.1.4.1.6.1l.3-.9zm.3-1.1c.2.1.4.1.6.2.1 0 .2.1.2.2 0 .2-.2.4-.4.4l-.6-.2.1-.2.1-.4z"/><path id="Shape-Copy" class="st0" d="M139.7 8.9c.2-.1.3-.2.5-.3l-.5-.8.4-.2.8.6c.2-.1.3-.2.5-.2l-.9-.7c.1-.1.1-.2.1-.3.1-.5-.6-1.1-1-.9-.4.2-.8.4-1.1.6l.1.3 1.1 1.9zm0-2.3c.2-.1.4.2.4.4 0 .1 0 .1-.1.2l-.5.3-.3-.5-.1-.1c.3-.2.4-.2.6-.3z"/><path id="INTERCHANGE-EXCHANGE-Copy-3" class="st0" d="M182.4 16.9h1.1v6h-1.1v-6zm4.3 0h1.4l2.8 4.5v-4.5h1.1v6h-1.4l-2.9-4.7v4.7h-1.1v-6zm9.8 1h-1.8V17h4.8v.9h-1.8V23h-1.1v-5.1zm5.6-1h4v.9h-2.9v1.5h2.8v.9h-2.8V22h3.1v1h-4.1v-6.1zm7.1 0h2.1c.3 0 .6 0 .8.1.3.1.5.2.7.3s.4.3.5.5c.1.2.2.5.2.8 0 .4-.1.8-.4 1.1s-.6.5-1 .6l1.6 2.7h-1.3l-1.4-2.6h-.8V23h-1.1v-6.1zm1.9 2.6h.5c.2 0 .3-.1.4-.1l.3-.3c.1-.1.1-.3.1-.4 0-.2 0-.3-.1-.4s-.2-.3-.3-.3c-.1-.1-.2-.1-.4-.1h-1.4v1.7h.9zm9.7-1.2c-.2-.2-.4-.4-.6-.5-.3-.1-.5-.1-.7-.1-.3 0-.6.1-.8.2-.3.1-.5.3-.7.5s-.3.4-.4.7c-.1.3-.1.6-.1.9 0 .3 0 .6.1.9.1.3.2.5.4.7.2.2.4.3.6.5.2.1.5.2.8.2.3 0 .6-.1.9-.2.2-.1.5-.3.6-.5l.9.6c-.3.3-.6.6-1 .8s-.8.3-1.4.3c-.5 0-.9-.1-1.3-.2-.4-.2-.7-.4-1-.7-.3-.3-.5-.6-.7-1s-.2-.8-.2-1.3.1-.9.3-1.3c.2-.4.4-.7.7-1s.6-.5 1-.6c.4-.1.8-.2 1.3-.2.2 0 .4 0 .6.1.2 0 .4.1.6.2.2.1.4.2.5.3.2.1.3.3.4.4l-.8.3zm3.5-1.4h1.1v2.4h2.8v-2.4h1.1v6h-1.1v-2.7h-2.8v2.7h-1.1v-6zm10.1 0h.9l2.6 6h-1.2l-.6-1.4h-2.6l-.5 1.4h-1.2l2.6-6zm1.4 3.7l-.9-2.5-.9 2.5h1.8zm4.6-3.7h1.4l2.8 4.5v-4.5h1.1v6h-1.4l-2.9-4.7v4.7h-1.1v-6zm13.9 5.7c-.3.1-.6.3-1 .3s-.8.1-1.3.1-.9-.1-1.3-.2c-.4-.2-.7-.4-1-.7-.3-.3-.5-.6-.7-1s-.2-.8-.2-1.3.1-.9.3-1.3c.2-.4.4-.7.7-1s.6-.5 1-.6c.4-.1.8-.2 1.3-.2s.9.1 1.3.2.7.3 1 .5l-.7.8c-.2-.2-.4-.3-.6-.4s-.6-.2-.9-.2c-.3 0-.6.1-.9.2s-.5.3-.7.5c-.2.2-.3.4-.4.7-.1.3-.1.6-.1.9 0 .3 0 .6.1.9.1.3.2.5.4.7.2.2.4.4.7.5.3.1.6.2.9.2.5 0 .9-.1 1.2-.2v-1.5H252v-.9h2.3v3zm3.2-5.7h4v.9h-2.9v1.5h2.8v.9h-2.8V22h3.1v1h-4.1v-6.1z"/><path id="INTERACT-NETWORK" class="st0" d="M183 38.9h-.6v-6h.6v6zm7.8-.9v-5.2h.6v6h-.8l-3.5-5.2v5.2h-.6v-6h.8l3.5 5.2zm6.1.9h-.6v-5.5h-2v-.5h4.7v.5h-2v5.5zm5.4-.6h3.2v.5h-3.9v-6h3.7v.5h-3.1v2.1h2.9v.6h-2.9v2.3zm6.9.6h-.6v-6h1.8c.3 0 .6 0 .8.1.3.1.5.1.7.3.2.1.3.3.4.5.1.2.2.5.2.8 0 .2 0 .4-.1.6-.1.2-.2.3-.3.5-.1.1-.3.2-.5.3-.2.1-.4.1-.6.2l1.8 2.9h-.8l-1.7-2.8h-1v2.6zm0-3.4h1.1c.5 0 .9-.1 1.1-.3.3-.2.4-.4.4-.8 0-.2 0-.4-.1-.5l-.3-.3c-.1-.1-.3-.1-.5-.2s-.4-.1-.6-.1h-1.1v2.2zm6.4 3.4h-.7l2.6-6h.6l2.6 6h-.7l-.7-1.6h-3.1l-.6 1.6zm.9-2.2h2.7l-1.3-3.2-1.4 3.2zm11.9 1.2c-.1.2-.2.3-.4.4s-.3.3-.5.4c-.2.1-.4.2-.6.2-.2.1-.5.1-.8.1-.5 0-.9-.1-1.3-.2-.4-.2-.7-.4-1-.7s-.5-.6-.7-1c-.2-.4-.2-.8-.2-1.3s.1-.9.2-1.3c.2-.4.4-.7.7-1 .3-.3.6-.5 1-.7.4-.2.8-.2 1.3-.2.2 0 .4 0 .7.1.2 0 .4.1.6.2.2.1.4.2.5.3.2.1.3.2.4.4l-.5.4c-.1-.1-.1-.2-.3-.3s-.2-.2-.4-.3c-.1-.1-.3-.1-.5-.2s-.3-.1-.5-.1c-.4 0-.7.1-1.1.2-.3.1-.6.3-.8.6-.2.2-.4.5-.5.8s-.2.7-.2 1 .1.7.2 1 .3.6.5.8.5.4.8.6.7.2 1 .2c.3 0 .7-.1 1-.2s.6-.4.8-.7l.6.5zm4.9 1h-.6v-5.5h-2v-.5h4.7v.5h-2v5.5zm12.9-.9v-5.2h.6v6h-.8l-3.5-5.2v5.2h-.6v-6h.8l3.5 5.2zm4.7.3h3.2v.5h-3.9v-6h3.7v.5h-3.1v2.1h2.9v.6h-2.9v2.3zm8.3.6h-.6v-5.5h-2v-.5h4.7v.5h-2v5.5zm6.3-.9l1.5-5.2h.7l1.5 5.2 1.5-5.2h.6l-1.8 6h-.7l-1.5-5.2-1.5 5.2h-.7l-1.8-6h.6l1.6 5.2zm14.6-2.1c0 .5-.1.9-.2 1.3-.2.4-.4.7-.7 1s-.6.5-1 .7c-.4.2-.8.2-1.3.2-.4 0-.9-.1-1.3-.2-.4-.2-.7-.4-1-.7s-.5-.6-.7-1c-.2-.4-.2-.8-.2-1.3s.1-.9.2-1.3c.2-.4.4-.7.7-1 .3-.3.6-.5 1-.7.4-.2.8-.2 1.3-.2.4 0 .9.1 1.3.2s.7.4 1 .7c.3.3.5.6.7 1 .1.4.2.8.2 1.3zm-.7 0c0-.4-.1-.7-.2-1s-.3-.6-.5-.8c-.2-.2-.5-.4-.8-.6s-.7-.2-1-.2-.7.1-1 .2-.6.3-.8.6c-.2.2-.4.5-.5.8-.1.3-.2.7-.2 1s.1.7.2 1c.1.3.3.6.5.8.2.2.5.4.8.6s.7.2 1 .2.7-.1 1-.2.6-.3.8-.6c.2-.2.4-.5.5-.8s.2-.7.2-1zm4.5 3h-.6v-6h1.8c.3 0 .6 0 .8.1.3.1.5.1.7.3.2.1.3.3.4.5.1.2.2.5.2.8 0 .2 0 .4-.1.6-.1.2-.2.3-.3.5-.1.1-.3.2-.5.3-.2.1-.4.1-.6.2l1.8 2.9h-.8l-1.7-2.8h-1v2.6zm0-3.4h1.1c.5 0 .9-.1 1.1-.3.3-.2.4-.4.4-.8 0-.2 0-.4-.1-.5l-.3-.3c-.1-.1-.3-.1-.5-.2-.2 0-.4-.1-.6-.1h-1.1v2.2zm7 .1l2.9-2.7h.9l-3 2.7 3.2 3.3h-.9l-3-3.2v3.2h-.6v-6h.6v2.7z"/><path id="Shape" class="st0" d="M54.9 16.5c-1.7 0-2.9 1.1-2.9 1.1v-.8s0-.2-.2-.2h-1.9c-.3 0-.3.3-.3.3v9.7s0 .3.3.3h1.7c.3 0 .3-.3.3-.3v-6.7c.2-.1 1.1-1 2.7-1.2 1.1-.2 1.3.9 1.3.9v7s0 .3.3.3H58c.4 0 .4-.4.4-.4v-7.2s.1-2.9-3.5-2.8z"/><path class="st0" d="M66.2 24.9h-1.7c-.8 0-.8-1.1-.8-1.3v-4.8h2.5c.3 0 .3-.3.3-.3v-1.6s0-.2-.2-.2h-2.5v-1.9s0-.5-.4-.4c-.4.1-1.4.3-1.6.4-.4.1-.4.4-.4.4v1.6h-1c-.3 0-.3.3-.3.3v1.6s0 .3.3.3h1v4.7c0 1.3.1 3.4 2.4 3.7.4.1 1.8 0 2.5-.2.2 0 .3-.3.3-.3v-1.5c0-.2 0-.5-.4-.5zm10.4-5.4c0-3.2-2.8-3.2-4-3.2-4.4 0-4.6 3.1-4.6 5.4 0 6.2 3.5 5.4 4.6 5.4 1 0 3.1-.4 3.1-.4.2 0 .4-.1.3-.3l-.1-1.5s0-.3-.3-.3-3.4.2-3.4.2c-.7 0-1.5-.3-1.7-1.8 0 0 3.3-.2 3.5-.3.4.1 2.6-.2 2.6-3.2zM73 21l-2.6.1c0-1.7.7-2.7 2.2-2.7.8 0 1.4.2 1.5.9v.7c0 .7-.6 1-1.1 1zm11-4.5c-.9-.1-1.9.5-2.8 1.1v-.8c0-.1 0-.2-.2-.2h-2s-.3 0-.3.3v9.7c0 .4.3.4.3.4h1.7s.3 0 .3-.3v-6.6c.9-.7 1.9-1.1 2.9-1.2.1 0 .2 0 .2-.3v-1.5c.2-.3.2-.5-.1-.6zm6.1-.1c-.9 0-3.8.4-3.8.4-.3 0-.4.2-.4.3v1.4c0 .2.1.3.3.4l4-.2c.5 0 1 .6 1 .9v1l-2.8.2c-2.5.2-3.2 1.4-3.2 3.1 0 0-.2 3.6 3.2 3.3 2.2-.2 3.1-.7 3.1-.7.5.3 1 .7 1.7.7 0 0 .3 0 .3-.2v-7.5c.1-.1.3-3.2-3.4-3.1zm1.1 8.3c-.9.2-1.5.4-2.6.4 0 0-1 0-1-1.3 0-1.2 1.1-1.3 1.2-1.3.1 0 2.4-.1 2.4-.1v2.3zm19.8.1h-1.7c-.8 0-.8-1.1-.8-1.3v-4.8h2.5c.3 0 .3-.3.3-.3v-1.6s0-.2-.2-.2h-2.5v-1.9s0-.5-.4-.4c-.4.1-1.4.3-1.6.4-.4.1-.4.4-.4.4v1.6h-1c-.3 0-.3.3-.3.3v1.6s0 .3.3.3h1v4.7c0 1.3.1 3.4 2.4 3.7.4.1 1.8 0 2.5-.2.2 0 .3-.3.3-.3v-1.5c0-.1 0-.5-.4-.5zM46.7 12.9H45c-.4 0-.4.4-.4.4v13.3s0 .4.4.4h1.7c.4 0 .4-.4.4-.4V13.3s0-.4-.4-.4zm56.5 3.8s-2-.5-3.5-.4c-.9.1-4.5-.3-4.5 5.5 0 5.5 3.6 5.3 4.2 5.3 1.7 0 1.7 0 3.7-.4.2-.1.2-.2.3-.3V25c0-.3-.1-.4-.3-.4-.9.2-1.9.3-3 .4-1.8.1-2.4-1.1-2.4-3.1 0-1.8.1-3.3 2.3-3.4 1 0 2 .2 2.9.3.3 0 .4-.1.5-.3l.1-1.4c0-.2-.1-.3-.3-.4zm-69 22.1h-.4l.7-3.7h2.2l-.1.3h-1.8l-.2 1.3h1.7l-.1.3h-1.7l-.3 1.8zm5.5.1c-.2 0-.5 0-.7-.1s-.4-.2-.5-.3c-.1-.1-.3-.3-.3-.5-.1-.2-.1-.4-.1-.6 0-.3.1-.6.2-.9.1-.3.3-.5.5-.7s.4-.4.7-.5c.3-.1.5-.2.9-.2.2 0 .5 0 .7.1.2.1.4.2.5.3.1.1.3.3.3.5.1.2.1.4.1.6 0 .3-.1.6-.2.9-.1.3-.3.5-.5.7-.2.2-.4.4-.7.5s-.6.2-.9.2zm1.7-2.3c0-.2 0-.3-.1-.5s-.1-.3-.2-.4-.2-.2-.4-.3-.3-.1-.5-.1c-.3 0-.5.1-.7.2-.2.1-.4.3-.6.4-.2.2-.3.4-.4.6-.1.2-.1.5-.1.7 0 .2 0 .3.1.5s.1.3.2.4c.1.1.2.2.4.3.2.1.3.1.5.1.3 0 .5-.1.7-.2.2-.1.4-.3.6-.4s.3-.4.4-.6c.1-.2.1-.4.1-.7zm3.5 2.3c-.2 0-.4 0-.6-.1s-.3-.2-.4-.3c-.1-.1-.2-.2-.2-.4 0-.1-.1-.3-.1-.4v-.4L44 35h.4l-.4 2.3v.6c0 .1.1.2.1.3.1.1.2.1.3.2.1 0 .2.1.4.1s.4 0 .5-.1c.1-.1.3-.2.3-.3.1-.1.2-.2.2-.4.1-.1.1-.3.1-.5l.4-2.3h.4l-.4 2.3c0 .2-.1.3-.1.5-.1.2-.2.3-.3.5-.1.1-.3.3-.5.4s-.2.3-.5.3zm6.2-.6l.6-3.2h.3l-.7 3.7h-.5l-1.5-3.2-.6 3.2h-.4l.7-3.7h.5l1.6 3.2zm3.1-3.2h1.1c.2 0 .4 0 .6.1.2.1.4.1.6.3.2.1.3.3.4.5.1.2.2.4.2.7 0 .3-.1.6-.2.9-.1.3-.3.5-.5.7-.2.2-.4.3-.7.4-.3.1-.6.2-.9.2h-1.2l.6-3.8zm-.2 3.4h.8c.3 0 .6-.1.8-.2s.4-.2.6-.4c.2-.2.3-.4.4-.6.1-.2.1-.4.1-.7 0-.2 0-.3-.1-.5s-.1-.3-.3-.4c-.1-.1-.3-.2-.4-.3s-.4-.1-.6-.1h-.7l-.6 3.2zm5.1 0h2l-.1.3h-2.4l.7-3.7h2.2l-.1.3h-1.9l-.2 1.3h1.8v.3h-1.8l-.2 1.5zm4.5-3.4h1.1c.2 0 .4 0 .6.1.2.1.4.1.6.3.2.1.3.3.4.5.1.2.2.4.2.7 0 .3-.1.6-.2.9-.1.3-.3.5-.5.7-.2.2-.4.3-.7.4-.3.1-.6.2-.9.2H63l.6-3.8zm-.3 3.4h.8c.3 0 .6-.1.8-.2s.4-.2.6-.4.3-.4.4-.6c.1-.2.1-.4.1-.7 0-.2 0-.3-.1-.5s-.1-.3-.3-.4c-.1-.1-.3-.2-.4-.3s-.4-.1-.6-.1h-.7l-.6 3.2zm7.6.3h-.4l.7-3.7h.4l-.7 3.7zm4.9-.5l.6-3.2h.4l-.7 3.7h-.5l-1.5-3.2-.6 3.2h-.4l.7-3.7h.5l1.5 3.2zm5.3-3.2h1.3c.2 0 .4 0 .6.1.2.1.4.1.6.3s.3.3.4.5c.1.2.2.4.2.7 0 .3-.1.6-.2.9-.1.3-.3.5-.5.7-.2.2-.4.3-.7.4-.3.1-.6.2-.9.2h-1.4l.6-3.8zm.1 3.1h.7c.3 0 .5 0 .7-.1.2-.1.4-.2.5-.3.1-.1.2-.3.3-.5.1-.2.1-.4.1-.6 0-.1 0-.3-.1-.4s-.1-.2-.2-.3c-.1-.1-.2-.2-.4-.2-.2-.1-.3-.1-.5-.1h-.6l-.5 2.5zm5.3.6l.5-3-.8.6-.3-.4 1.3-.9h.6l-.7 3.7h-.6zm5.5-2.7c0-.1 0-.2-.1-.3 0-.1-.1-.1-.1-.2-.1-.1-.1-.1-.2-.1h-.2c-.2 0-.4.1-.6.2-.1.2-.2.3-.2.6 0 .1 0 .2.1.3 0 .1.1.1.1.2.1.1.1.1.2.1h.2c.1 0 .2 0 .3-.1s.2-.1.3-.2c.1-.1.1-.2.2-.3s0-.1 0-.2zm-.7 1.3h-.1-.1c-.2 0-.3 0-.5-.1-.1-.1-.3-.1-.4-.2-.1-.1-.2-.2-.2-.3 0-.1-.1-.3-.1-.4 0-.2 0-.4.1-.5s.2-.3.3-.4.3-.2.5-.3c.2-.1.4-.1.6-.1.2 0 .3 0 .5.1s.3.1.4.2c.1.1.2.2.3.4.1.1.1.3.1.5s0 .4-.1.6c-.1.2-.2.4-.4.6L91 39h-.7l1-1.6zm3.6 1.4l.5-3-.8.6-.4-.4 1.3-.9h.6l-.7 3.7h-.5zm4.9-3.8c.2 0 .4 0 .5.1l.3.3c.1.1.1.3.2.4 0 .2.1.3.1.5v.6c0 .2-.1.4-.1.6-.1.2-.1.4-.2.6-.1.2-.2.3-.3.5-.1.1-.3.2-.4.3-.2.1-.3.1-.5.1s-.4 0-.5-.1-.3-.2-.3-.3c-.1-.1-.2-.2-.2-.4s-.1-.3-.1-.5v-.6c0-.2.1-.4.1-.6s.1-.4.2-.6c.1-.2.2-.3.3-.5s.3-.2.4-.3c.1-.1.3-.1.5-.1zm-.1.5c-.1 0-.3.1-.4.2-.1.1-.2.3-.3.5-.1.2-.1.4-.2.6 0 .2-.1.5-.1.7v.3c0 .1 0 .2.1.3 0 .1.1.1.2.2.1 0 .1.1.2.1s.3-.1.4-.2c.1-.1.2-.3.3-.5s.1-.4.2-.6c0-.2.1-.5.1-.7v-.3c0-.1 0-.2-.1-.3 0-.1-.1-.1-.2-.2 0-.1-.1-.1-.2-.1zm2.4 3.5l-.4-.2 2.3-4 .4.2-2.3 4zm5.6-.8l-.1.6h-2.5l.1-.6 1.7-1.4.4-.4c.1-.1.1-.3.1-.4 0-.2 0-.3-.1-.4-.1-.1-.2-.1-.4-.1s-.3.1-.4.2-.2.2-.3.4l-.6-.2c.1-.3.3-.6.5-.7s.5-.2.8-.2c.2 0 .3 0 .5.1.1 0 .3.1.4.2.1.1.2.2.2.3.1.1.1.3.1.4 0 .1 0 .3-.1.4 0 .1-.1.2-.2.3l-.3.3c-.1.1-.2.2-.4.3l-1.1.9h1.7zm3.5-3.2c.2 0 .4 0 .5.1l.3.3c.1.1.1.3.2.4 0 .2.1.3.1.5v.6c0 .2-.1.4-.1.6-.1.2-.1.4-.2.6-.1.2-.2.3-.3.5-.1.1-.3.2-.4.3-.2.1-.3.1-.5.1s-.4 0-.5-.1-.3-.2-.3-.3-.2-.2-.2-.4-.1-.3-.1-.5v-.6c0-.2.1-.4.1-.6s.1-.4.2-.6c.1-.2.2-.3.3-.5s.3-.2.4-.3c.1-.1.3-.1.5-.1zm-.1.5c-.1 0-.3.1-.4.2-.1.1-.2.3-.3.5-.1.2-.1.4-.2.6 0 .2-.1.5-.1.7v.3c0 .1 0 .2.1.3 0 .1.1.1.2.2.1 0 .1.1.2.1s.3-.1.4-.2c.1-.1.2-.3.3-.5s.1-.4.2-.6c0-.2.1-.5.1-.7v-.3c0-.1 0-.2-.1-.3 0-.1-.1-.1-.2-.2 0-.1-.1-.1-.2-.1z"/></g></g></svg>