<svg width="95" height="24" xmlns="http://www.w3.org/2000/svg"><path d="M28.035 2.518V1.074h2.96v2.889h-2.96V2.518zm64.679 3.636c-.602-.541-1.172-1.702-1.425-2.9-.168-.795-.164-.799.345-.271.499.518.99 1.245 1.167 1.724.129.352.194 1.127.12 1.42l-.044.173-.163-.146zM70.128 6.07c-.063-.431-.003-1.01.143-1.387.225-.582.46-.933 1.042-1.56l.562-.606-.032.273c-.052.438-.276 1.274-.466 1.734-.254.619-.476.983-.866 1.421l-.345.388-.038-.263zm22.16 1.932c-.597-.637-1.42-2.096-1.692-2.999-.069-.228-.117-.422-.108-.432.034-.037.792.532 1.084.812.372.357.725.872.89 1.296.156.403.264 1.215.197 1.478l-.048.189-.322-.344zm-21.897.126c-.073-.407.076-1.12.352-1.681.263-.537.764-1.083 1.4-1.526.252-.175.469-.306.482-.292.055.057-.309.98-.608 1.545-.48.909-1.046 1.709-1.419 2.007l-.173.139-.034-.192zm-.806 1.653c-.53-.752-.751-1.803-.63-2.988.06-.587.258-1.466.389-1.728.071-.143.074-.14.205.296.258.859.398 1.988.398 3.22 0 .711-.08 1.432-.16 1.432-.022 0-.112-.104-.202-.232zm23.578-.114c-.048-.295-.059-.726-.037-1.493.038-1.38.187-2.389.445-3.022l.096-.236.157.518c.349 1.146.4 2.421.135 3.298-.106.35-.395.93-.582 1.166l-.146.184-.068-.415zm-.752 1.96c-.58-.949-1.175-2.883-1.168-3.803l.002-.346.4.444c.464.514.842 1.142 1.033 1.715.224.67.222 1.593-.004 2.148l-.066.163-.197-.321zm-22.01.261a3.09 3.09 0 0 1-.112-.385c-.105-.424-.106-1.154-.003-1.574.175-.71.654-1.542 1.223-2.124l.32-.327-.031.49c-.059.908-.408 2.124-.917 3.19-.266.557-.433.81-.48.73zm22.242 1.566c0-.282.203-1.107.438-1.779.404-1.155 1.353-2.973 1.502-2.877.072.047.003 1.627-.09 2.073-.167.796-.505 1.525-.95 2.049-.182.214-.794.745-.859.745-.022 0-.041-.095-.041-.21zm-22.618-.033c-.439-.343-.827-.846-1.093-1.419-.338-.727-.444-1.241-.477-2.33-.015-.51-.008-.913.018-.912.182.003 1.118 1.821 1.497 2.908.334.955.545 1.999.405 1.996-.021 0-.179-.11-.35-.243zm21.386 1.465c-.25-.618-.402-1.959-.366-3.25.014-.497.055-1 .094-1.144l.07-.258.149.23c.684 1.06.99 2.305.797 3.254-.085.418-.353 1.073-.534 1.304l-.102.13-.108-.266zm-20.091-.05a4.379 4.379 0 0 1-.33-.707c-.114-.334-.13-.469-.13-1.063.002-.623.017-.727.17-1.2.157-.484.536-1.262.728-1.49.08-.097.088-.09.154.135.242.824.05 3.738-.291 4.437l-.103.212-.198-.325zm19.45 2.314c.262-.725 1.189-2.019 2.204-3.078.625-.652 1.245-1.17 1.314-1.097.055.058-.245 1.024-.456 1.466-.45.944-1.117 1.805-1.795 2.312-.321.241-.959.574-1.225.64l-.143.036.1-.279zm-18.923.087c-.546-.25-.912-.511-1.37-.975a6.298 6.298 0 0 1-1.396-2.128c-.177-.434-.357-1.111-.309-1.162.051-.054.7.463 1.142.909 1.033 1.044 2.077 2.494 2.386 3.314.108.287.087.289-.453.042zm17.296.683c-.12-.79.717-3.74 1.285-4.522l.134-.185.057.158c.231.637.32 1.814.186 2.474-.134.667-.396 1.159-.885 1.663-.233.24-.495.479-.583.53l-.161.095-.033-.213zm-15.548.023a3.417 3.417 0 0 1-1.042-1.219c-.299-.613-.347-.853-.347-1.723 0-.624.022-.856.123-1.268.067-.277.138-.504.156-.504.02 0 .11.122.204.272.514.824 1.21 3.224 1.214 4.184 0 .222-.008.413-.02.425-.011.012-.141-.063-.288-.167zM84.227 1.2c.093-.123.098-.154.035-.191-.195-.115-1.695-.464-1.695-.394 0 .007.226.14.502.294.276.155.583.34.683.411.205.146.292.124.475-.12zm-4.915.1c.12-.086.404-.26.633-.386.506-.28.577-.344.335-.301-.42.074-.981.208-1.29.308l-.331.107.199.214c.11.117.207.213.218.213.01 0 .117-.07.236-.156zm3.988.638c.168-.094.306-.192.306-.219 0-.107-1.318-.861-1.384-.792-.015.016.13.258.32.538.192.28.36.539.374.577.035.091.036.091.384-.104zm-3.005-.196c.13-.203.31-.473.402-.6.09-.127.14-.232.108-.232-.176 0-1.422.746-1.377.823.032.054.544.375.6.376.017 0 .137-.165.267-.367zm2.025.577c.136-.031.247-.081.247-.11 0-.072-.479-.797-.701-1.061l-.177-.21-.005 1.504.195-.034c.107-.018.306-.058.441-.09zm-1-.591c0-.39-.018-.709-.041-.709-.024 0-.099.08-.168.177-.382.543-.673.985-.673 1.024 0 .04.124.074.65.183.239.049.233.066.233-.675zm4.905 1.048c.227-.171.421-.342.432-.379.028-.089-.907-.727-1.472-1.005l-.452-.222-.458.523.171.14c.37.303.97.881 1.102 1.065.078.106.169.192.203.192s.247-.142.474-.314zM84.32 3.824c.56-.22 1.053-.472 1.053-.537 0-.076-.72-.803-1.106-1.114l-.293-.237-.144.107a3.61 3.61 0 0 1-.379.23 3.237 3.237 0 0 0-.254.142c-.03.028.688 1.538.733 1.543.021.003.196-.057.39-.134zm-1.33.38c.238-.048.464-.105.501-.126.051-.03-.011-.202-.248-.688-.387-.793-.397-.807-.567-.76-.073.021-.32.067-.55.102l-.415.064-.029 1.565.436-.035c.24-.02.632-.074.871-.122zm5.203.286l.301-.202-.234-.312a12.053 12.053 0 0 0-.73-.83c-.374-.39-.514-.504-.567-.464-.412.316-.85.643-.908.677-.053.032.011.166.266.555.184.282.423.679.53.882l.194.37.424-.237c.232-.13.558-.328.724-.439zm-9.858 12.27c.2-.076.61-.238.91-.36.747-.3 1.374-.485 1.873-.55.507-.068.657-.137.812-.38.14-.217.15-.45.037-.8-.046-.14-.113-.542-.15-.893-.036-.35-.106-.726-.155-.834-.098-.215-.396-.522-.901-.927-.437-.35-.541-.532-.515-.9.016-.225.052-.322.17-.451.114-.125.157-.234.177-.449.025-.252.042-.286.157-.303.211-.03.26-.11.26-.424 0-.272.009-.293.124-.293.197 0 .273-.137.192-.345-.185-.471-.12-.636.249-.637.328-.001.888-.132 1.13-.263.11-.06.446-.362.746-.672.793-.82 1.336-1.08 2.262-1.08.543-.001.932.092 1.387.333 1.2.634 2.033 1.66 2.327 2.87.14.57.138 1.53-.003 2.116-.183.76-.418 1.182-.981 1.766-.79.82-1.433 1.146-2.313 1.171-.577.017-.62.06-.588.574.036.558.359 1.085.91 1.482.273.197.26.204.937-.473 1.912-1.91 2.897-4.587 2.667-7.253a9.709 9.709 0 0 0-1.085-3.687c-.125-.232-.246-.435-.269-.45-.023-.015-.156.049-.296.142-.14.093-.465.291-.722.44-.257.15-.474.278-.481.284-.008.007.044.15.115.317l.128.305-.219-.102a.788.788 0 0 1-.298-.236c-.061-.105-.1-.124-.167-.084-.058.034-.21.026-.44-.023-.29-.061-.327-.08-.214-.11.076-.02.247-.086.38-.146l.243-.109-.169-.314c-.215-.4-.757-1.239-.856-1.326-.063-.054-.162-.025-.53.157-.249.123-.593.278-.764.343-.171.065-.32.126-.33.135-.01.01.092.363.226.787.134.423.235.78.222.793a.605.605 0 0 1-.174.055l-.152.032-.238-.754c-.275-.871-.167-.804-1.06-.655a16.02 16.02 0 0 1-.87.122l-.35.034V6.53l.402-.034c.221-.018.618-.056.88-.084.264-.028.53-.05.594-.05h.115l-.126.14c-.207.233-.3.26-1.087.32l-.753.057-.03.627h-.36V4.741l-.272-.034a4.632 4.632 0 0 0-.436-.035c-.132 0-.185-.038-.27-.19l-.108-.19.544.034.543.035v-.773c0-.572-.017-.778-.065-.792a8.35 8.35 0 0 0-.429-.081c-.2-.035-.425-.077-.501-.094-.13-.03-.155 0-.402.478-.145.28-.271.533-.28.56-.018.052-.292-.13-.295-.194-.001-.018.114-.251.255-.517.185-.347.24-.496.195-.526a28.256 28.256 0 0 0-.416-.263l-.354-.22-.488.416c-.485.413-.49.416-.707.37l-.22-.045.555-.49c.305-.269.55-.504.542-.523a2.711 2.711 0 0 0-.212-.264l-.199-.23-.268.12c-1.005.445-2.205 1.368-2.958 2.273-1.153 1.388-1.94 3.242-2.087 4.921-.018.195-.043.447-.056.56-.015.116-.003.204.027.204.028 0 .22-.137.426-.304.205-.167.539-.403.74-.525.786-.475.85-.633.653-1.625-.115-.58-.133-1.213-.046-1.646a2.55 2.55 0 0 1 1.662-1.899c.28-.099.418-.114.877-.095.453.019.612.05.942.188.807.336 1.58 1.005 1.914 1.654.17.33.182.388.182.845 0 .547-.094.828-.466 1.394-.192.292-.194.3-.16.688l.033.393-.158.086c-.121.065-.158.122-.158.245 0 .087-.033.179-.073.203-.04.024-.08.105-.09.18-.013.092-.056.141-.136.153-.064.01-.176.1-.25.2-.237.328-.514.368-1.255.182-.455-.114-.488-.116-.66-.03-.246.123-.267.261-.141.925.132.694.32 2.093.32 2.382 0 .539.236.69 1.246.796l.727.076.298-.218c.257-.19.33-.217.532-.203.211.014.233.028.219.14-.016.118-.005.122.261.089.22-.028.293-.016.348.053.106.134.046.624-.119.978-.235.504-.598.657-1.191.5-.313-.081-.38-.082-.748-.007-.847.173-1.2.219-1.683.219-.432 0-.537-.02-.77-.14l-.269-.14-.08.13c-.13.207-.22.519-.223.766-.002.223.01.239.442.6.244.204.495.389.558.41.063.02.383.031.712.022.485-.013.665-.042.96-.155zm1.789 2.004c-3.626-.617-6.494-3.428-7.315-7.17-.176-.799-.23-1.474-.195-2.447.05-1.472.292-2.467.92-3.794.198-.42.518-.996.711-1.28.434-.638 1.347-1.615 1.935-2.068C78.303.368 80.921-.207 83.5.4c.784.185 1.188.338 2.002.761 2.453 1.277 4.162 3.613 4.76 6.51.104.504.118.724.118 1.853 0 1.407-.06 1.865-.39 2.917-.215.687-.813 1.92-1.229 2.534-.451.667-1.41 1.67-2.039 2.138a9.375 9.375 0 0 1-3.402 1.572c-.671.153-2.5.199-3.197.08zm5.571.969c-.14-.029-.122-.134.081-.48.363-.616 3.021-3.1 3.16-2.955.052.054-.087.803-.244 1.32-.274.908-.73 1.526-1.372 1.857-.465.24-1.164.35-1.625.258zm-9.281-.022c-.767-.115-1.436-.666-1.82-1.493-.3-.65-.601-1.935-.454-1.935.028 0 .212.127.41.282 1.147.905 2.558 2.334 2.79 2.825l.142.3-.119.035c-.162.049-.575.043-.95-.014zm12.205.297l-.43-.05-.273-.03.09-.16c.12-.215.614-.628 1.268-1.062.62-.412 2.224-1.265 2.638-1.404.371-.125.68-.174.68-.11 0 .09-.601 1.01-.892 1.364-.558.682-1.399 1.239-2.068 1.37-.36.07-.81.106-1.013.082zm-14.828-.022c-.487-.057-.754-.143-1.196-.383-.719-.391-1.188-.873-1.827-1.874-.335-.524-.344-.548-.225-.564.2-.027 1.006.284 1.751.676 1.254.66 2.212 1.314 2.644 1.806l.226.257-.18.036c-.328.066-.85.087-1.193.046zM60.066 15.18l-.013-6.065-1.13-.014-1.129-.015V7.29l1.13-.014 1.13-.015.029-1.908c.032-2.113.047-2.221.393-2.965.223-.48.775-1.096 1.214-1.356.158-.093.497-.243.753-.333 1.01-.354 2.08-.364 3.44-.033.116.028.117.033.117 1.12V2.88l-.247-.04a9.598 9.598 0 0 0-1-.043c-.938-.002-1.38.116-1.742.466-.41.398-.439.554-.439 2.42v1.606h3.064v1.8h-3.064v12.155H60.08l-.014-6.064zm-31.823-.94V7.234h2.544v14.01h-2.544v-7.005zm-14.023.027V7.234h2.44v1.035c0 .57.02 1.036.045 1.036.025 0 .13-.144.233-.32.533-.906 1.423-1.584 2.565-1.953.42-.136.527-.147 1.365-.149.695-.002 1.012.022 1.35.099 2.025.462 3.246 1.684 3.558 3.561.065.391.078 1.297.078 5.61v5.145H23.36v-4.62c-.001-5.003-.014-5.284-.282-6.03-.418-1.166-1.368-1.779-2.757-1.779-1.057 0-1.789.32-2.549 1.115-.405.423-.495.551-.632.902-.384.98-.425 1.618-.427 6.5l-.001 3.912H14.22v-7.032zm40.313-1.854c-.03-1.095-.385-2.076-.972-2.692-1.117-1.173-3.132-1.281-4.389-.236-.755.63-1.266 1.757-1.334 2.942l-.03.532 3.37-.014 3.37-.014-.015-.518zm-4.763 9.106c-2.478-.466-3.988-2.235-4.468-5.235-.116-.722-.157-2.29-.08-3.057.197-1.992.83-3.552 1.893-4.661a4.979 4.979 0 0 1 1.521-1.124c1.797-.884 4.4-.724 6.085.373.53.346 1.169 1.023 1.504 1.596.686 1.172.945 2.343.945 4.27v1.076l-4.687.014-4.687.014-.016.408c-.01.225.01.642.044.927.293 2.487 1.704 3.814 3.829 3.598 1.455-.147 2.243-.807 2.607-2.184.058-.222.106-.459.106-.527v-.124h2.649v.126c0 .07-.05.33-.109.577-.451 1.875-1.674 3.183-3.49 3.735-1.026.312-2.588.397-3.646.198zm-12.101.073c-2.076-.325-3.384-1.289-4.212-3.1-.455-.996-.673-1.983-.74-3.346-.183-3.71.973-6.403 3.264-7.61.884-.467 1.67-.648 2.83-.651 1.323-.004 2.22.268 3.183.964 1.04.753 1.76 2.098 1.865 3.488l.031.422h-2.508v-.166c0-.611-.375-1.588-.783-2.042-.76-.843-2.2-1.031-3.352-.437-.413.213-.938.746-1.175 1.191-.543 1.02-.816 2.645-.75 4.452.075 1.987.475 3.299 1.255 4.116.571.598 1.203.86 2.079.86 1.42 0 2.385-.82 2.727-2.319.056-.247.103-.529.103-.626v-.177h2.526l-.041.365c-.224 1.948-1.371 3.533-3.064 4.233-.709.294-1.142.372-2.148.39-.514.01-1.004.006-1.09-.007zm-34.2.007C2.052 21.268.965 20.26.461 18.811c-.349-1.003-.333-.72-.354-6.412L.09 7.234h2.545l.032 9.785.139.531c.403 1.544 1.239 2.221 2.74 2.221.97 0 1.77-.328 2.398-.986.412-.43.663-.936.85-1.706.271-1.125.285-1.407.285-5.786v-4.06h2.545v14.065h-2.44v-1.036c0-.57-.02-1.036-.044-1.036-.024 0-.135.14-.247.31-.617.942-1.607 1.643-2.774 1.966-.414.114-.639.14-1.402.156-.662.014-1.001-.002-1.247-.06zm74.859 2.136l-.188-.18.56-.613c.567-.621 1.277-1.225 1.894-1.613.42-.264.4-.245.31-.305-.127-.084-.837-.316-1.134-.37l-.277-.05-.256.237c-.533.497-1.013.64-2.149.64-1.061.001-1.863-.153-2.96-.57-.464-.176-.466-.177-.311-.243.207-.089 1.246-.331 1.879-.438.69-.118 2.55-.162 3.242-.078a9.645 9.645 0 0 1 2.056.465l.54.19.507-.184a9.532 9.532 0 0 1 2.081-.472c.694-.084 2.544-.036 3.25.083.64.107 1.66.344 1.868.434.155.066.154.067-.311.243-1.091.414-1.893.569-2.96.57-1.131.001-1.568-.128-2.157-.636l-.285-.247-.26.054c-.323.068-1.011.302-1.115.38-.05.036-.058.066-.021.082.143.063 1.12.771 1.434 1.04.436.373 1.287 1.304 1.287 1.406 0 .11-.339.367-.454.346-.053-.01-.28-.234-.502-.498-.595-.703-1.501-1.512-2.173-1.94l-.195-.124-.272.176c-.701.452-1.719 1.386-2.246 2.062-.306.39-.41.414-.682.153z" fill="#676767" fill-rule="evenodd"/></svg>